Title:
Every Blessed Day Aka Tutti I Santi Giorni

Country:
Italy/2012

Language:
Italian

Subtitle:
English (srt)

Director:
Paolo Virzì

Writers:
Simone Lenzi (novel), Paolo Virzì (screenplay)

Stars:
Luca Marinelli, Thony, Micol Azzurro 

Synopsis:
Guido and Antonia are a young couple with opposing characters and working schedules: he works a night job as a doorman in a hotel, and she works as an employee for a rental car service. This is the story of what happens to Guido and Antonia when they decide to have a child. 

IMDB: 
http://www.imdb.com/title/tt2290789/

Trailer: 
http://www.movieplayer.it/video/trailer-tutti-i-santi-giorni_11525/


Media Info:
General
Complete name                            : Every.Blessed.Day.[Tutti.I.Santi.Giorni]. 2012.BRRip.XviD.HORiZON-ArtSubs
Format                                   : AVI
Format/Info                              : Audio Video Interleave
Format profile                           : OpenDML
File size                                : 1.52 GiB
Duration                                 : 1h 42mn
Overall bit rate                         : 2 123 Kbps
Writing application                      : Lavf52.94.0

Video
ID                                       : 0
Format                                   : MPEG-4 Visual
Format profile                           : Simple@L3
Format settings, BVOP                    : No
Format settings, QPel                    : No
Format settings, GMC                     : No warppoints
Format settings, Matrix                  : Default (H.263)
Codec ID                                 : XVID
Codec ID/Hint                            : XviD
Duration                                 : 1h 42mn
Bit rate                                 : 1 887 Kbps
Width                                    : 1 280 pixels
Height                                   : 544 pixels
Display aspect ratio                     : 2.35:1
Frame rate                               : 24.000 fps
Color space                              : YUV
Chroma subsampling                       : 4:2:0
Bit depth                                : 8 bits
Scan type                                : Progressive
Compression mode                         : Lossy
Bits/(Pixel*Frame)                       : 0.113
Stream size                              : 1.35 GiB (89%)
Writing library                          : XviD 1.2.1 (UTC 2008-12-04)

Audio
ID                                       : 1
Format                                   : AC-3
Format/Info                              : Audio Coding 3
Mode extension                           : CM (complete main)
Format settings, Endianness              : Big
Codec ID                                 : 2000
Duration                                 : 1h 42mn
Bit rate mode                            : Constant
Bit rate                                 : 224 Kbps
Channel(s)                               : 2 channels
Channel positions                        : Front: L R
Sampling rate                            : 48.0 KHz
Bit depth                                : 16 bits
Compression mode                         : Lossy
Stream size                              : 164 MiB (11%)
Alignment                                : Aligned on interleaves
Interleave, duration                     : 32 ms (0.77 video frame)
Interleave, preload duration             : 32 ms

